<svg width="3775" height="1088" viewBox="0 0 3775 1088" fill="none" xmlns="http://www.w3.org/2000/svg">
<rect width="1000" height="1000" rx="130" fill="#13171A"/>
<g filter="url(#filter0_d_34_1086)">
<mask id="mask0_34_1086" style="mask-type:alpha" maskUnits="userSpaceOnUse" x="180" y="180" width="640" height="640">
<rect x="180" y="180" width="640" height="640" fill="#D9D9D9"/>
</mask>
<g mask="url(#mask0_34_1086)">
<path d="M392.848 631.719L499.981 583.126L607.114 631.719L615.541 623.132L499.981 343.586L384.421 623.132L392.848 631.719ZM499.994 771.132C462.683 771.132 427.541 764.03 394.568 749.826C361.594 735.621 332.832 716.246 308.281 691.699C283.734 667.148 264.359 638.39 250.154 605.426C235.95 572.461 228.848 537.323 228.848 500.012C228.848 462.408 235.95 427.117 250.154 394.139C264.359 361.166 283.73 332.477 308.268 308.072C332.805 283.668 361.559 264.348 394.528 250.112C427.497 235.877 462.639 228.759 499.954 228.759C537.568 228.759 572.868 235.874 605.854 250.105C638.837 264.337 667.526 283.65 691.921 308.046C716.321 332.437 735.637 361.121 749.868 394.099C764.103 427.077 771.221 462.377 771.221 499.999C771.221 537.319 764.103 572.466 749.868 605.439C735.632 638.412 716.312 667.17 691.908 691.712C667.503 716.25 638.819 735.621 605.854 749.826C572.89 764.03 537.603 771.132 499.994 771.132ZM499.981 720.626C561.483 720.626 613.63 699.179 656.421 656.286C699.212 613.388 720.608 561.292 720.608 499.999C720.608 438.497 699.212 386.35 656.421 343.559C613.63 300.768 561.466 279.372 499.928 279.372C438.688 279.372 386.614 300.768 343.708 343.559C300.805 386.35 279.354 438.514 279.354 500.052C279.354 561.292 300.801 613.366 343.694 656.272C386.592 699.175 438.688 720.626 499.981 720.626Z" fill="#FB3E5A"/>
</g>
</g>
<path d="M1378.38 380H1149.9V45.4H1378.38V105.15H1217.78V182.586H1364.04V242.814H1217.78V320.25H1378.38V380ZM1556.94 141C1596.14 141 1621.47 166.334 1621.47 205.53V311.646C1621.47 325.03 1622.9 328.376 1635.81 325.986L1663.06 321.206V380H1623.86C1587.05 380 1565.07 358.968 1565.07 329.81H1555.51C1547.38 368.05 1524.44 387.17 1484.76 387.17C1430.75 386.692 1404.94 358.968 1404.94 314.992C1404.94 264.802 1435.53 238.99 1507.71 238.99H1552.16V211.266C1552.16 197.882 1551.2 196.448 1537.82 196.926L1423.1 203.14V141H1556.94ZM1507.23 329.81C1537.82 329.81 1552.16 312.602 1552.16 274.362V271.016H1512.01C1486.2 271.016 1474.25 280.576 1474.25 300.652C1474.25 318.816 1485.72 329.81 1507.23 329.81ZM1796.06 387.17C1723.4 387.17 1683.73 355.144 1678.95 300.174H1744.91C1748.26 321.684 1760.68 333.156 1795.58 333.156C1820.91 333.156 1831.43 323.596 1831.43 307.344C1831.43 289.18 1815.65 285.834 1767.38 277.708C1721.49 269.582 1685.16 255.72 1685.16 207.442C1685.16 160.598 1720.53 133.352 1778.85 133.352C1845.29 133.352 1878.27 160.12 1882.57 217.48H1817.09C1813.74 198.36 1806.09 186.888 1780.76 186.888C1759.25 186.888 1750.65 197.404 1750.65 209.832C1750.65 226.084 1765.46 229.908 1807.05 236.6C1855.33 244.726 1897.39 258.11 1897.39 310.212C1897.39 358.968 1865.84 387.17 1796.06 387.17ZM1958.24 380L1905.18 141H1974.49L2024.21 372.83H2034.24L2083.96 141H2153.27L2096.38 394.818C2085.87 443.096 2057.19 475.122 2006.52 479.424L1909.96 487.55V418.24L2008.43 420.63C2021.82 421.108 2022.77 420.63 2025.64 407.724L2032.81 380H1958.24ZM1452.95 978H1310.99L1228.77 650.57H1219.21V978H1149.9V643.4H1291.87L1374.08 970.83H1383.64V643.4H1452.95V978ZM1640.5 739C1679.69 739 1705.03 764.334 1705.03 803.53V909.646C1705.03 923.03 1706.46 926.376 1719.37 923.986L1746.61 919.206V978H1707.42C1670.61 978 1648.62 956.968 1648.62 927.81H1639.06C1630.94 966.05 1607.99 985.17 1568.32 985.17C1514.3 984.692 1488.49 956.968 1488.49 912.992C1488.49 862.802 1519.08 836.99 1591.26 836.99H1635.72V809.266C1635.72 795.882 1634.76 794.448 1621.38 794.926L1506.66 801.14V739H1640.5ZM1590.78 927.81C1621.38 927.81 1635.72 910.602 1635.72 872.362V869.016H1595.56C1569.75 869.016 1557.8 878.576 1557.8 898.652C1557.8 916.816 1569.27 927.81 1590.78 927.81ZM1997.95 739L1941.54 978H1799.58L1742.69 739H1812L1865.54 970.83H1875.1L1928.64 739H1997.95ZM2057.77 675.904C2057.77 652.482 2073.07 638.62 2101.75 638.62C2130.43 638.62 2145.72 652.482 2145.72 675.904C2145.72 699.804 2130.43 713.666 2101.75 713.666C2073.07 713.666 2057.77 699.804 2057.77 675.904ZM2025.27 739H2072.59C2122.78 739 2147.16 764.334 2147.16 814.046V918.728H2216.95V978H2010.93V918.728H2080.72V805.92C2080.72 792.536 2079.76 789.668 2066.38 791.58L2025.27 797.316V739ZM2498.31 799.706L2421.83 777.24V786.8C2456.73 793.492 2474.41 809.744 2474.41 846.072C2474.41 896.74 2439.04 920.64 2363.99 920.64H2347.74C2316.19 920.64 2308.55 922.552 2308.55 930.2C2308.55 937.37 2315.24 939.282 2337.23 939.282H2390.76C2464.85 939.76 2489.71 967.006 2489.71 1013.85C2489.71 1060.69 2464.85 1087.94 2390.76 1087.94H2335.31C2256.92 1087.94 2229.68 1063.56 2229.68 1021.5C2229.68 983.258 2254.05 962.704 2320.02 962.704V953.144C2255.97 953.144 2239.24 947.408 2239.24 928.766C2239.24 908.69 2252.14 902.476 2326.23 902.476V892.916C2263.14 892.916 2233.5 864.714 2233.5 821.216C2233.5 767.202 2272.7 739 2355.39 739H2498.31V799.706ZM2302.81 833.166C2302.81 854.676 2318.11 866.626 2357.78 866.626C2395.54 866.626 2412.27 856.11 2412.27 833.166C2412.27 810.7 2395.54 799.706 2357.78 799.706C2319.54 799.706 2302.81 810.7 2302.81 833.166ZM2384.55 978.956H2336.75C2309.98 978.956 2298.99 985.17 2298.99 1002.86C2298.99 1020.54 2311.41 1027.23 2336.75 1027.23H2384.55C2408.93 1027.23 2420.4 1020.54 2420.4 1002.86C2420.4 985.17 2409.88 978.956 2384.55 978.956ZM2659.51 739C2698.71 739 2724.04 764.334 2724.04 803.53V909.646C2724.04 923.03 2725.48 926.376 2738.38 923.986L2765.63 919.206V978H2726.43C2689.63 978 2667.64 956.968 2667.64 927.81H2658.08C2649.95 966.05 2627.01 985.17 2587.34 985.17C2533.32 984.692 2507.51 956.968 2507.51 912.992C2507.51 862.802 2538.1 836.99 2610.28 836.99H2654.73V809.266C2654.73 795.882 2653.78 794.448 2640.39 794.926L2525.67 801.14V739H2659.51ZM2609.8 927.81C2640.39 927.81 2654.73 910.602 2654.73 872.362V869.016H2614.58C2588.77 869.016 2576.82 878.576 2576.82 898.652C2576.82 916.816 2588.29 927.81 2609.8 927.81ZM2755.15 796.36V739H2800.09L2809.65 657.74H2880.39L2864.62 734.22L2867.96 743.302L2956.39 739V796.36H2869.4V907.734C2869.4 921.118 2870.35 923.03 2883.74 922.074L2965.95 915.86V978H2875.61C2829.24 978 2800.09 949.32 2800.09 902.954V796.36H2755.15ZM3038.04 675.904C3038.04 652.482 3053.34 638.62 3082.02 638.62C3110.7 638.62 3126 652.482 3126 675.904C3126 699.804 3110.7 713.666 3082.02 713.666C3053.34 713.666 3038.04 699.804 3038.04 675.904ZM3005.54 739H3052.86C3103.05 739 3127.43 764.334 3127.43 814.046V918.728H3197.22V978H2991.2V918.728H3060.99V805.92C3060.99 792.536 3060.03 789.668 3046.65 791.58L3005.54 797.316V739ZM3211.5 858.5C3211.5 780.586 3261.69 731.83 3341.99 731.83C3422.29 731.83 3472.48 780.586 3472.48 858.5C3472.48 936.414 3422.29 985.17 3341.99 985.17C3261.69 985.17 3211.5 936.414 3211.5 858.5ZM3278.89 858.5C3278.89 902.954 3300.4 927.81 3341.99 927.81C3383.58 927.81 3404.61 902.954 3404.61 858.5C3404.61 814.046 3383.58 789.19 3341.99 789.19C3300.4 789.19 3278.89 814.046 3278.89 858.5ZM3577.91 978H3508.6V739H3577.91L3573.13 793.014L3582.69 792.536C3590.82 753.818 3616.63 731.83 3662.52 731.83C3725.61 731.83 3751.43 765.768 3751.43 829.82V978H3677.34L3686.9 841.77C3688.81 811.656 3672.56 796.36 3636.71 796.36C3594.64 796.36 3577.91 818.348 3577.91 857.544V978Z" fill="#13171A"/>
<defs>
<filter id="filter0_d_34_1086" x="158.848" y="162.759" width="682.374" height="682.374" filterUnits="userSpaceOnUse" color-interpolation-filters="sRGB">
<feFlood flood-opacity="0" result="BackgroundImageFix"/>
<feColorMatrix in="SourceAlpha" type="matrix" values="0 0 0 0 0 0 0 0 0 0 0 0 0 0 0 0 0 0 127 0" result="hardAlpha"/>
<feOffset dy="4"/>
<feGaussianBlur stdDeviation="35"/>
<feComposite in2="hardAlpha" operator="out"/>
<feColorMatrix type="matrix" values="0 0 0 0 0.984314 0 0 0 0 0.243137 0 0 0 0 0.352941 0 0 0 0.33 0"/>
<feBlend mode="normal" in2="BackgroundImageFix" result="effect1_dropShadow_34_1086"/>
<feBlend mode="normal" in="SourceGraphic" in2="effect1_dropShadow_34_1086" result="shape"/>
</filter>
</defs>
</svg>
