<svg width="164" height="43" viewBox="0 0 164 43" fill="none" xmlns="http://www.w3.org/2000/svg">
<rect x="0.761475" width="36" height="36" rx="6" fill="#15171B"/>
<g filter="url(#filter0_d_145_865)">
<mask id="mask0_145_865" style="mask-type:alpha" maskUnits="userSpaceOnUse" x="7" y="6" width="24" height="24">
<rect x="7.24158" y="6.48001" width="23.04" height="23.04" fill="#D9D9D9"/>
</mask>
<g mask="url(#mask0_145_865)">
<path d="M14.904 22.742L18.7608 20.9926L22.6176 22.742L22.921 22.4328L18.7608 12.3691L14.6006 22.4328L14.904 22.742ZM18.7613 27.7608C17.4181 27.7608 16.153 27.5052 14.9659 26.9938C13.7789 26.4824 12.7434 25.7849 11.8596 24.9012C10.9759 24.0174 10.2784 22.9821 9.76704 21.7954C9.25568 20.6087 9 19.3437 9 18.0005C9 16.6467 9.25568 15.3763 9.76704 14.1891C10.2784 13.002 10.9758 11.9692 11.8591 11.0907C12.7425 10.2121 13.7776 9.51658 14.9645 9.0041C16.1514 8.49162 17.4165 8.23538 18.7598 8.23538C20.1139 8.23538 21.3847 8.49154 22.5723 9.00386C23.7596 9.51618 24.7924 10.2115 25.6707 11.0897C26.5491 11.9678 27.2444 13.0004 27.7567 14.1876C28.2692 15.3748 28.5255 16.6456 28.5255 18C28.5255 19.3435 28.2692 20.6088 27.7567 21.7959C27.2443 22.9829 26.5487 24.0182 25.6702 24.9017C24.7916 25.7851 23.759 26.4824 22.5723 26.9938C21.3855 27.5052 20.1152 27.7608 18.7613 27.7608ZM18.7608 25.9426C20.9749 25.9426 22.8522 25.1705 24.3927 23.6264C25.9331 22.082 26.7034 20.2066 26.7034 18C26.7034 15.7859 25.9331 13.9087 24.3927 12.3682C22.8522 10.8277 20.9742 10.0575 18.7589 10.0575C16.5542 10.0575 14.6796 10.8277 13.135 12.3682C11.5905 13.9087 10.8182 15.7866 10.8182 18.0019C10.8182 20.2066 11.5903 22.0812 13.1345 23.6259C14.6788 25.1704 16.5542 25.9426 18.7608 25.9426Z" fill="#FB3E5A"/>
</g>
</g>
<path d="M55.6815 23.8125H48.5115V13.3125H55.6815V15.1875H50.6415V17.6175H55.2315V19.5075H50.6415V21.9375H55.6815V23.8125ZM60.7847 16.3125C62.0147 16.3125 62.8097 17.1075 62.8097 18.3375V21.6675C62.8097 22.0875 62.8547 22.1925 63.2597 22.1175L64.1147 21.9675V23.8125H62.8847C61.7297 23.8125 61.0397 23.1525 61.0397 22.2375H60.7397C60.4847 23.4375 59.7647 24.0375 58.5197 24.0375C56.8247 24.0225 56.0147 23.1525 56.0147 21.7725C56.0147 20.1975 56.9747 19.3875 59.2397 19.3875H60.6347V18.5175C60.6347 18.0975 60.6047 18.0525 60.1847 18.0675L56.5847 18.2625V16.3125H60.7847ZM59.2247 22.2375C60.1847 22.2375 60.6347 21.6975 60.6347 20.4975V20.3925H59.3747C58.5647 20.3925 58.1897 20.6925 58.1897 21.3225C58.1897 21.8925 58.5497 22.2375 59.2247 22.2375ZM67.7883 24.0375C65.5083 24.0375 64.2633 23.0325 64.1133 21.3075H66.1833C66.2883 21.9825 66.6783 22.3425 67.7733 22.3425C68.5683 22.3425 68.8983 22.0425 68.8983 21.5325C68.8983 20.9625 68.4033 20.8575 66.8883 20.6025C65.4483 20.3475 64.3083 19.9125 64.3083 18.3975C64.3083 16.9275 65.4183 16.0725 67.2483 16.0725C69.3333 16.0725 70.3683 16.9125 70.5033 18.7125H68.4483C68.3433 18.1125 68.1033 17.7525 67.3083 17.7525C66.6333 17.7525 66.3633 18.0825 66.3633 18.4725C66.3633 18.9825 66.8283 19.1025 68.1333 19.3125C69.6483 19.5675 70.9683 19.9875 70.9683 21.6225C70.9683 23.1525 69.9783 24.0375 67.7883 24.0375ZM72.3779 23.8125L70.7129 16.3125H72.8879L74.4479 23.5875H74.7629L76.3229 16.3125H78.4979L76.7129 24.2775C76.3829 25.7925 75.4829 26.7975 73.8929 26.9325L70.8629 27.1875V25.0125L73.9529 25.0875C74.3729 25.1025 74.4029 25.0875 74.4929 24.6825L74.7179 23.8125H72.3779ZM91.9961 23.8125H87.5411L84.9611 13.5375H84.6611V23.8125H82.4861V13.3125H86.9411L89.5211 23.5875H89.8211V13.3125H91.9961V23.8125ZM97.3814 16.3125C98.6114 16.3125 99.4064 17.1075 99.4064 18.3375V21.6675C99.4064 22.0875 99.4514 22.1925 99.8564 22.1175L100.711 21.9675V23.8125H99.4814C98.3264 23.8125 97.6364 23.1525 97.6364 22.2375H97.3364C97.0814 23.4375 96.3614 24.0375 95.1164 24.0375C93.4214 24.0225 92.6114 23.1525 92.6114 21.7725C92.6114 20.1975 93.5714 19.3875 95.8364 19.3875H97.2314V18.5175C97.2314 18.0975 97.2014 18.0525 96.7814 18.0675L93.1814 18.2625V16.3125H97.3814ZM95.8214 22.2375C96.7814 22.2375 97.2314 21.6975 97.2314 20.4975V20.3925H95.9714C95.1614 20.3925 94.7864 20.6925 94.7864 21.3225C94.7864 21.8925 95.1464 22.2375 95.8214 22.2375ZM108.098 16.3125L106.328 23.8125H101.873L100.088 16.3125H102.263L103.943 23.5875H104.243L105.923 16.3125H108.098ZM109.476 14.3325C109.476 13.5975 109.956 13.1625 110.856 13.1625C111.756 13.1625 112.236 13.5975 112.236 14.3325C112.236 15.0825 111.756 15.5175 110.856 15.5175C109.956 15.5175 109.476 15.0825 109.476 14.3325ZM108.456 16.3125H109.941C111.516 16.3125 112.281 17.1075 112.281 18.6675V21.9525H114.471V23.8125H108.006V21.9525H110.196V18.4125C110.196 17.9925 110.166 17.9025 109.746 17.9625L108.456 18.1425V16.3125ZM122.8 18.2175L120.4 17.5125V17.8125C121.495 18.0225 122.05 18.5325 122.05 19.6725C122.05 21.2625 120.94 22.0125 118.585 22.0125H118.075C117.085 22.0125 116.845 22.0725 116.845 22.3125C116.845 22.5375 117.055 22.5975 117.745 22.5975H119.425C121.75 22.6125 122.53 23.4675 122.53 24.9375C122.53 26.4075 121.75 27.2625 119.425 27.2625H117.685C115.225 27.2625 114.37 26.4975 114.37 25.1775C114.37 23.9775 115.135 23.3325 117.205 23.3325V23.0325C115.195 23.0325 114.67 22.8525 114.67 22.2675C114.67 21.6375 115.075 21.4425 117.4 21.4425V21.1425C115.42 21.1425 114.49 20.2575 114.49 18.8925C114.49 17.1975 115.72 16.3125 118.315 16.3125H122.8V18.2175ZM116.665 19.2675C116.665 19.9425 117.145 20.3175 118.39 20.3175C119.575 20.3175 120.1 19.9875 120.1 19.2675C120.1 18.5625 119.575 18.2175 118.39 18.2175C117.19 18.2175 116.665 18.5625 116.665 19.2675ZM119.23 23.8425H117.73C116.89 23.8425 116.545 24.0375 116.545 24.5925C116.545 25.1475 116.935 25.3575 117.73 25.3575H119.23C119.995 25.3575 120.355 25.1475 120.355 24.5925C120.355 24.0375 120.025 23.8425 119.23 23.8425ZM127.359 16.3125C128.589 16.3125 129.384 17.1075 129.384 18.3375V21.6675C129.384 22.0875 129.429 22.1925 129.834 22.1175L130.689 21.9675V23.8125H129.459C128.304 23.8125 127.614 23.1525 127.614 22.2375H127.314C127.059 23.4375 126.339 24.0375 125.094 24.0375C123.399 24.0225 122.589 23.1525 122.589 21.7725C122.589 20.1975 123.549 19.3875 125.814 19.3875H127.209V18.5175C127.209 18.0975 127.179 18.0525 126.759 18.0675L123.159 18.2625V16.3125H127.359ZM125.799 22.2375C126.759 22.2375 127.209 21.6975 127.209 20.4975V20.3925H125.949C125.139 20.3925 124.764 20.6925 124.764 21.3225C124.764 21.8925 125.124 22.2375 125.799 22.2375ZM129.86 18.1125V16.3125H131.27L131.57 13.7625H133.79L133.295 16.1625L133.4 16.4475L136.175 16.3125V18.1125H133.445V21.6075C133.445 22.0275 133.475 22.0875 133.895 22.0575L136.475 21.8625V23.8125H133.64C132.185 23.8125 131.27 22.9125 131.27 21.4575V18.1125H129.86ZM138.237 14.3325C138.237 13.5975 138.717 13.1625 139.617 13.1625C140.517 13.1625 140.997 13.5975 140.997 14.3325C140.997 15.0825 140.517 15.5175 139.617 15.5175C138.717 15.5175 138.237 15.0825 138.237 14.3325ZM137.217 16.3125H138.702C140.277 16.3125 141.042 17.1075 141.042 18.6675V21.9525H143.232V23.8125H136.767V21.9525H138.957V18.4125C138.957 17.9925 138.927 17.9025 138.507 17.9625L137.217 18.1425V16.3125ZM143.18 20.0625C143.18 17.6175 144.755 16.0875 147.275 16.0875C149.795 16.0875 151.37 17.6175 151.37 20.0625C151.37 22.5075 149.795 24.0375 147.275 24.0375C144.755 24.0375 143.18 22.5075 143.18 20.0625ZM145.295 20.0625C145.295 21.4575 145.97 22.2375 147.275 22.2375C148.58 22.2375 149.24 21.4575 149.24 20.0625C149.24 18.6675 148.58 17.8875 147.275 17.8875C145.97 17.8875 145.295 18.6675 145.295 20.0625ZM154.179 23.8125H152.004V16.3125H154.179L154.029 18.0075L154.329 17.9925C154.584 16.7775 155.394 16.0875 156.834 16.0875C158.814 16.0875 159.624 17.1525 159.624 19.1625V23.8125H157.299L157.599 19.5375C157.659 18.5925 157.149 18.1125 156.024 18.1125C154.704 18.1125 154.179 18.8025 154.179 20.0325V23.8125Z" fill="#15171B"/>
<defs>
<filter id="filter0_d_145_865" x="0" y="3.23538" width="37.5255" height="37.5255" filterUnits="userSpaceOnUse" color-interpolation-filters="sRGB">
<feFlood flood-opacity="0" result="BackgroundImageFix"/>
<feColorMatrix in="SourceAlpha" type="matrix" values="0 0 0 0 0 0 0 0 0 0 0 0 0 0 0 0 0 0 127 0" result="hardAlpha"/>
<feOffset dy="4"/>
<feGaussianBlur stdDeviation="4.5"/>
<feComposite in2="hardAlpha" operator="out"/>
<feColorMatrix type="matrix" values="0 0 0 0 0.984314 0 0 0 0 0.243137 0 0 0 0 0.352941 0 0 0 0.33 0"/>
<feBlend mode="normal" in2="BackgroundImageFix" result="effect1_dropShadow_145_865"/>
<feBlend mode="normal" in="SourceGraphic" in2="effect1_dropShadow_145_865" result="shape"/>
</filter>
</defs>
</svg>
