<svg width="1072" height="1072" viewBox="0 0 1072 1072" fill="none" xmlns="http://www.w3.org/2000/svg">
<rect width="1072" height="1072" rx="220" fill="#13171A"/>
<g filter="url(#filter0_d_12_559)">
<mask id="mask0_12_559" style="mask-type:alpha" maskUnits="userSpaceOnUse" x="192" y="192" width="688" height="688">
<rect x="192.96" y="192.96" width="686.08" height="686.08" fill="#D9D9D9"/>
</mask>
<g mask="url(#mask0_12_559)">
<path d="M421.133 677.203L535.98 625.111L650.827 677.203L659.86 667.998L535.98 368.324L412.099 667.998L421.133 677.203ZM535.994 826.654C495.996 826.654 458.324 819.04 422.977 803.813C387.629 788.586 356.796 767.815 330.477 741.501C304.163 715.183 283.393 684.354 268.165 649.016C252.938 613.678 245.325 576.011 245.325 536.013C245.325 495.701 252.938 457.869 268.165 422.517C283.393 387.169 304.158 356.415 330.463 330.253C356.767 304.092 387.591 283.381 422.934 268.12C458.276 252.86 495.949 245.229 535.951 245.229C576.273 245.229 614.114 252.857 649.476 268.113C684.833 283.369 715.587 304.073 741.74 330.225C767.896 356.372 788.603 387.122 803.858 422.474C819.119 457.826 826.749 495.668 826.749 535.999C826.749 576.006 819.119 613.683 803.858 649.031C788.598 684.378 767.887 715.206 741.725 741.516C715.564 767.82 684.814 788.586 649.476 803.813C614.138 819.04 576.311 826.654 535.994 826.654ZM535.98 772.511C601.91 772.511 657.811 749.52 703.683 703.538C749.556 657.552 772.492 601.705 772.492 535.999C772.492 470.068 749.556 414.167 703.683 368.295C657.811 322.423 601.891 299.487 535.923 299.487C470.273 299.487 414.451 322.423 368.455 368.295C322.463 414.167 299.468 470.087 299.468 536.056C299.468 601.705 322.459 657.528 368.44 703.524C414.427 749.515 470.273 772.511 535.98 772.511Z" fill="#2563EB"/>
</g>
</g>
<defs>
<filter id="filter0_d_12_559" x="175.325" y="179.229" width="721.424" height="721.425" filterUnits="userSpaceOnUse" color-interpolation-filters="sRGB">
<feFlood flood-opacity="0" result="BackgroundImageFix"/>
<feColorMatrix in="SourceAlpha" type="matrix" values="0 0 0 0 0 0 0 0 0 0 0 0 0 0 0 0 0 0 127 0" result="hardAlpha"/>
<feOffset dy="4"/>
<feGaussianBlur stdDeviation="35"/>
<feComposite in2="hardAlpha" operator="out"/>
<feColorMatrix type="matrix" values="0 0 0 0 0.145098 0 0 0 0 0.388235 0 0 0 0 0.921569 0 0 0 0.33 0"/>
<feBlend mode="normal" in2="BackgroundImageFix" result="effect1_dropShadow_12_559"/>
<feBlend mode="normal" in="SourceGraphic" in2="effect1_dropShadow_12_559" result="shape"/>
</filter>
</defs>
</svg>
