<svg width="160" height="160" viewBox="0 0 160 160" fill="none" xmlns="http://www.w3.org/2000/svg">
<rect x="61.7615" y="57.7646" width="36" height="36" rx="6" fill="#13171A"/>
<g filter="url(#filter0_d_121_960)">
<mask id="mask0_121_960" style="mask-type:alpha" maskUnits="userSpaceOnUse" x="68" y="64" width="24" height="24">
<rect x="68.2415" y="64.2446" width="23.04" height="23.04" fill="#D9D9D9"/>
</mask>
<g mask="url(#mask0_121_960)">
<path d="M75.904 80.5066L79.7608 78.7572L83.6176 80.5066L83.921 80.1975L79.7608 70.1338L75.6006 80.1975L75.904 80.5066ZM79.7613 85.5255C78.4181 85.5255 77.153 85.2698 75.9659 84.7584C74.7789 84.2471 73.7434 83.5495 72.8596 82.6659C71.9759 81.782 71.2784 80.7467 70.767 79.56C70.2557 78.3733 70 77.1083 70 75.7651C70 74.4114 70.2557 73.1409 70.767 71.9537C71.2784 70.7666 71.9758 69.7338 72.8591 68.8553C73.7425 67.9767 74.7776 67.2812 75.9645 66.7687C77.1514 66.2562 78.4165 66 79.7598 66C81.1139 66 82.3847 66.2562 83.5723 66.7685C84.7596 67.2808 85.7924 67.9761 86.6707 68.8543C87.5491 69.7324 88.2444 70.765 88.7567 71.9522C89.2692 73.1394 89.5255 74.4102 89.5255 75.7646C89.5255 77.1082 89.2692 78.3734 88.7567 79.5605C88.2443 80.7475 87.5487 81.7828 86.6702 82.6663C85.7916 83.5497 84.759 84.2471 83.5723 84.7584C82.3855 85.2698 81.1152 85.5255 79.7613 85.5255ZM79.7608 83.7072C81.9749 83.7072 83.8522 82.9351 85.3927 81.391C86.9331 79.8467 87.7034 77.9712 87.7034 75.7646C87.7034 73.5506 86.9331 71.6733 85.3927 70.1328C83.8522 68.5923 81.9742 67.8221 79.7589 67.8221C77.5542 67.8221 75.6796 68.5923 74.135 70.1328C72.5905 71.6733 71.8182 73.5512 71.8182 75.7666C71.8182 77.9712 72.5903 79.8459 74.1345 81.3905C75.6788 82.935 77.5542 83.7072 79.7608 83.7072Z" fill="#FB3E5A"/>
</g>
</g>
<defs>
<filter id="filter0_d_121_960" x="0" y="0" width="159.525" height="159.525" filterUnits="userSpaceOnUse" color-interpolation-filters="sRGB">
<feFlood flood-opacity="0" result="BackgroundImageFix"/>
<feColorMatrix in="SourceAlpha" type="matrix" values="0 0 0 0 0 0 0 0 0 0 0 0 0 0 0 0 0 0 127 0" result="hardAlpha"/>
<feOffset dy="4"/>
<feGaussianBlur stdDeviation="35"/>
<feComposite in2="hardAlpha" operator="out"/>
<feColorMatrix type="matrix" values="0 0 0 0 0.984314 0 0 0 0 0.243137 0 0 0 0 0.352941 0 0 0 0.33 0"/>
<feBlend mode="normal" in2="BackgroundImageFix" result="effect1_dropShadow_121_960"/>
<feBlend mode="normal" in="SourceGraphic" in2="effect1_dropShadow_121_960" result="shape"/>
</filter>
</defs>
</svg>
